<svg xmlns="http://www.w3.org/2000/svg" viewBox="0 0 220 500" width="220mm" height="500mm"><rect stroke="black" stroke-width="0.02" x="0" y="0" width="220" height="500" rx="8" ry="8" fill="pink"/><path stroke="black" stroke-width="0.02" d="M 17.5 15 a 2.5 2.5 0 0 1 5 0 v 10 a 2.5 2.5 0 0 1 -5 0 Z " fill="white"/><path stroke="black" stroke-width="0.02" d="M 57.5 15 a 2.5 2.5 0 0 1 5 0 v 10 a 2.5 2.5 0 0 1 -5 0 Z " fill="white"/><path stroke="black" stroke-width="0.02" d="M 97.5 15 a 2.5 2.5 0 0 1 5 0 v 10 a 2.5 2.5 0 0 1 -5 0 Z " fill="white"/><path stroke="black" stroke-width="0.02" d="M 137.5 15 a 2.5 2.5 0 0 1 5 0 v 10 a 2.5 2.5 0 0 1 -5 0 Z " fill="white"/><path stroke="black" stroke-width="0.02" d="M 177.5 15 a 2.5 2.5 0 0 1 5 0 v 10 a 2.5 2.5 0 0 1 -5 0 Z " fill="white"/><path stroke="black" stroke-width="0.02" d="M 37.5 35 a 2.5 2.5 0 0 1 5 0 v 10 a 2.5 2.5 0 0 1 -5 0 Z " fill="white"/><path stroke="black" stroke-width="0.02" d="M 77.5 35 a 2.5 2.5 0 0 1 5 0 v 10 a 2.5 2.5 0 0 1 -5 0 Z " fill="white"/><path stroke="black" stroke-width="0.02" d="M 117.5 35 a 2.5 2.5 0 0 1 5 0 v 10 a 2.5 2.5 0 0 1 -5 0 Z " fill="white"/><path stroke="black" stroke-width="0.02" d="M 157.5 35 a 2.5 2.5 0 0 1 5 0 v 10 a 2.5 2.5 0 0 1 -5 0 Z " fill="white"/><path stroke="black" stroke-width="0.02" d="M 197.5 35 a 2.5 2.5 0 0 1 5 0 v 10 a 2.5 2.5 0 0 1 -5 0 Z " fill="white"/><path stroke="black" stroke-width="0.02" d="M 17.5 55 a 2.5 2.5 0 0 1 5 0 v 10 a 2.5 2.5 0 0 1 -5 0 Z " fill="white"/><path stroke="black" stroke-width="0.02" d="M 57.5 55 a 2.5 2.5 0 0 1 5 0 v 10 a 2.5 2.5 0 0 1 -5 0 Z " fill="white"/><path stroke="black" stroke-width="0.02" d="M 97.5 55 a 2.5 2.5 0 0 1 5 0 v 10 a 2.5 2.5 0 0 1 -5 0 Z " fill="white"/><path stroke="black" stroke-width="0.02" d="M 137.5 55 a 2.5 2.5 0 0 1 5 0 v 10 a 2.5 2.5 0 0 1 -5 0 Z " fill="white"/><path stroke="black" stroke-width="0.02" d="M 177.5 55 a 2.5 2.5 0 0 1 5 0 v 10 a 2.5 2.5 0 0 1 -5 0 Z " fill="white"/><path stroke="black" stroke-width="0.02" d="M 37.5 75 a 2.5 2.5 0 0 1 5 0 v 10 a 2.5 2.5 0 0 1 -5 0 Z " fill="white"/><path stroke="black" stroke-width="0.02" d="M 77.5 75 a 2.5 2.5 0 0 1 5 0 v 10 a 2.5 2.5 0 0 1 -5 0 Z " fill="white"/><path stroke="black" stroke-width="0.02" d="M 117.5 75 a 2.5 2.5 0 0 1 5 0 v 10 a 2.5 2.5 0 0 1 -5 0 Z " fill="white"/><path stroke="black" stroke-width="0.02" d="M 157.5 75 a 2.5 2.5 0 0 1 5 0 v 10 a 2.5 2.5 0 0 1 -5 0 Z " fill="white"/><path stroke="black" stroke-width="0.02" d="M 197.5 75 a 2.5 2.5 0 0 1 5 0 v 10 a 2.5 2.5 0 0 1 -5 0 Z " fill="white"/><path stroke="black" stroke-width="0.02" d="M 17.5 95 a 2.5 2.5 0 0 1 5 0 v 10 a 2.5 2.5 0 0 1 -5 0 Z " fill="white"/><path stroke="black" stroke-width="0.02" d="M 57.5 95 a 2.5 2.5 0 0 1 5 0 v 10 a 2.5 2.5 0 0 1 -5 0 Z " fill="white"/><path stroke="black" stroke-width="0.02" d="M 97.5 95 a 2.5 2.5 0 0 1 5 0 v 10 a 2.5 2.5 0 0 1 -5 0 Z " fill="white"/><path stroke="black" stroke-width="0.02" d="M 137.5 95 a 2.5 2.5 0 0 1 5 0 v 10 a 2.5 2.5 0 0 1 -5 0 Z " fill="white"/><path stroke="black" stroke-width="0.02" d="M 177.5 95 a 2.5 2.5 0 0 1 5 0 v 10 a 2.5 2.5 0 0 1 -5 0 Z " fill="white"/><path stroke="black" stroke-width="0.02" d="M 37.5 115 a 2.5 2.5 0 0 1 5 0 v 10 a 2.5 2.5 0 0 1 -5 0 Z " fill="white"/><path stroke="black" stroke-width="0.02" d="M 77.5 115 a 2.5 2.5 0 0 1 5 0 v 10 a 2.5 2.5 0 0 1 -5 0 Z " fill="white"/><path stroke="black" stroke-width="0.02" d="M 117.5 115 a 2.5 2.5 0 0 1 5 0 v 10 a 2.5 2.5 0 0 1 -5 0 Z " fill="white"/><path stroke="black" stroke-width="0.02" d="M 157.5 115 a 2.5 2.5 0 0 1 5 0 v 10 a 2.5 2.5 0 0 1 -5 0 Z " fill="white"/><path stroke="black" stroke-width="0.02" d="M 197.5 115 a 2.5 2.5 0 0 1 5 0 v 10 a 2.5 2.5 0 0 1 -5 0 Z " fill="white"/><path stroke="black" stroke-width="0.02" d="M 17.5 135 a 2.5 2.5 0 0 1 5 0 v 10 a 2.5 2.5 0 0 1 -5 0 Z " fill="white"/><path stroke="black" stroke-width="0.02" d="M 57.5 135 a 2.5 2.5 0 0 1 5 0 v 10 a 2.5 2.5 0 0 1 -5 0 Z " fill="white"/><path stroke="black" stroke-width="0.02" d="M 97.5 135 a 2.5 2.5 0 0 1 5 0 v 10 a 2.5 2.5 0 0 1 -5 0 Z " fill="white"/><path stroke="black" stroke-width="0.02" d="M 137.5 135 a 2.5 2.5 0 0 1 5 0 v 10 a 2.5 2.5 0 0 1 -5 0 Z " fill="white"/><path stroke="black" stroke-width="0.02" d="M 177.5 135 a 2.5 2.5 0 0 1 5 0 v 10 a 2.5 2.5 0 0 1 -5 0 Z " fill="white"/><path stroke="black" stroke-width="0.02" d="M 37.5 155 a 2.5 2.5 0 0 1 5 0 v 10 a 2.5 2.5 0 0 1 -5 0 Z " fill="white"/><path stroke="black" stroke-width="0.02" d="M 77.5 155 a 2.5 2.5 0 0 1 5 0 v 10 a 2.5 2.5 0 0 1 -5 0 Z " fill="white"/><path stroke="black" stroke-width="0.02" d="M 117.5 155 a 2.5 2.5 0 0 1 5 0 v 10 a 2.5 2.5 0 0 1 -5 0 Z " fill="white"/><path stroke="black" stroke-width="0.02" d="M 157.5 155 a 2.5 2.5 0 0 1 5 0 v 10 a 2.5 2.5 0 0 1 -5 0 Z " fill="white"/><path stroke="black" stroke-width="0.02" d="M 197.5 155 a 2.5 2.5 0 0 1 5 0 v 10 a 2.5 2.5 0 0 1 -5 0 Z " fill="white"/><path stroke="black" stroke-width="0.02" d="M 17.5 175 a 2.5 2.5 0 0 1 5 0 v 10 a 2.5 2.5 0 0 1 -5 0 Z " fill="white"/><path stroke="black" stroke-width="0.02" d="M 57.5 175 a 2.5 2.5 0 0 1 5 0 v 10 a 2.5 2.5 0 0 1 -5 0 Z " fill="white"/><path stroke="black" stroke-width="0.02" d="M 97.5 175 a 2.5 2.5 0 0 1 5 0 v 10 a 2.5 2.5 0 0 1 -5 0 Z " fill="white"/><path stroke="black" stroke-width="0.02" d="M 137.5 175 a 2.5 2.5 0 0 1 5 0 v 10 a 2.5 2.5 0 0 1 -5 0 Z " fill="white"/><path stroke="black" stroke-width="0.02" d="M 177.5 175 a 2.5 2.5 0 0 1 5 0 v 10 a 2.5 2.5 0 0 1 -5 0 Z " fill="white"/><path stroke="black" stroke-width="0.02" d="M 37.5 195 a 2.5 2.5 0 0 1 5 0 v 10 a 2.5 2.5 0 0 1 -5 0 Z " fill="white"/><path stroke="black" stroke-width="0.02" d="M 77.5 195 a 2.5 2.5 0 0 1 5 0 v 10 a 2.5 2.5 0 0 1 -5 0 Z " fill="white"/><path stroke="black" stroke-width="0.02" d="M 117.5 195 a 2.5 2.5 0 0 1 5 0 v 10 a 2.5 2.5 0 0 1 -5 0 Z " fill="white"/><path stroke="black" stroke-width="0.02" d="M 157.5 195 a 2.5 2.5 0 0 1 5 0 v 10 a 2.5 2.5 0 0 1 -5 0 Z " fill="white"/><path stroke="black" stroke-width="0.02" d="M 197.5 195 a 2.5 2.5 0 0 1 5 0 v 10 a 2.5 2.5 0 0 1 -5 0 Z " fill="white"/><path stroke="black" stroke-width="0.02" d="M 17.5 215 a 2.5 2.5 0 0 1 5 0 v 10 a 2.5 2.5 0 0 1 -5 0 Z " fill="white"/><path stroke="black" stroke-width="0.02" d="M 57.5 215 a 2.5 2.5 0 0 1 5 0 v 10 a 2.5 2.5 0 0 1 -5 0 Z " fill="white"/><path stroke="black" stroke-width="0.02" d="M 97.5 215 a 2.5 2.5 0 0 1 5 0 v 10 a 2.5 2.5 0 0 1 -5 0 Z " fill="white"/><path stroke="black" stroke-width="0.02" d="M 137.5 215 a 2.5 2.5 0 0 1 5 0 v 10 a 2.5 2.5 0 0 1 -5 0 Z " fill="white"/><path stroke="black" stroke-width="0.02" d="M 177.5 215 a 2.5 2.5 0 0 1 5 0 v 10 a 2.5 2.5 0 0 1 -5 0 Z " fill="white"/><path stroke="black" stroke-width="0.02" d="M 37.5 235 a 2.5 2.5 0 0 1 5 0 v 10 a 2.5 2.5 0 0 1 -5 0 Z " fill="white"/><path stroke="black" stroke-width="0.02" d="M 77.5 235 a 2.5 2.5 0 0 1 5 0 v 10 a 2.5 2.5 0 0 1 -5 0 Z " fill="white"/><path stroke="black" stroke-width="0.02" d="M 117.5 235 a 2.5 2.5 0 0 1 5 0 v 10 a 2.5 2.5 0 0 1 -5 0 Z " fill="white"/><path stroke="black" stroke-width="0.02" d="M 157.5 235 a 2.5 2.5 0 0 1 5 0 v 10 a 2.5 2.5 0 0 1 -5 0 Z " fill="white"/><path stroke="black" stroke-width="0.02" d="M 197.5 235 a 2.5 2.5 0 0 1 5 0 v 10 a 2.5 2.5 0 0 1 -5 0 Z " fill="white"/><path stroke="black" stroke-width="0.02" d="M 17.5 255 a 2.5 2.5 0 0 1 5 0 v 10 a 2.5 2.5 0 0 1 -5 0 Z " fill="white"/><path stroke="black" stroke-width="0.02" d="M 57.5 255 a 2.5 2.5 0 0 1 5 0 v 10 a 2.5 2.5 0 0 1 -5 0 Z " fill="white"/><path stroke="black" stroke-width="0.02" d="M 97.5 255 a 2.5 2.5 0 0 1 5 0 v 10 a 2.5 2.5 0 0 1 -5 0 Z " fill="white"/><path stroke="black" stroke-width="0.02" d="M 137.5 255 a 2.5 2.5 0 0 1 5 0 v 10 a 2.5 2.5 0 0 1 -5 0 Z " fill="white"/><path stroke="black" stroke-width="0.02" d="M 177.5 255 a 2.5 2.5 0 0 1 5 0 v 10 a 2.5 2.5 0 0 1 -5 0 Z " fill="white"/><path stroke="black" stroke-width="0.02" d="M 37.5 275 a 2.5 2.5 0 0 1 5 0 v 10 a 2.5 2.5 0 0 1 -5 0 Z " fill="white"/><path stroke="black" stroke-width="0.02" d="M 77.5 275 a 2.5 2.5 0 0 1 5 0 v 10 a 2.5 2.5 0 0 1 -5 0 Z " fill="white"/><path stroke="black" stroke-width="0.02" d="M 117.5 275 a 2.5 2.5 0 0 1 5 0 v 10 a 2.5 2.5 0 0 1 -5 0 Z " fill="white"/><path stroke="black" stroke-width="0.02" d="M 157.5 275 a 2.5 2.5 0 0 1 5 0 v 10 a 2.5 2.5 0 0 1 -5 0 Z " fill="white"/><path stroke="black" stroke-width="0.02" d="M 197.5 275 a 2.5 2.5 0 0 1 5 0 v 10 a 2.5 2.5 0 0 1 -5 0 Z " fill="white"/><path stroke="black" stroke-width="0.02" d="M 17.5 295 a 2.5 2.5 0 0 1 5 0 v 10 a 2.5 2.5 0 0 1 -5 0 Z " fill="white"/><path stroke="black" stroke-width="0.02" d="M 57.5 295 a 2.5 2.5 0 0 1 5 0 v 10 a 2.5 2.5 0 0 1 -5 0 Z " fill="white"/><path stroke="black" stroke-width="0.02" d="M 97.5 295 a 2.5 2.5 0 0 1 5 0 v 10 a 2.5 2.5 0 0 1 -5 0 Z " fill="white"/><path stroke="black" stroke-width="0.02" d="M 137.5 295 a 2.5 2.5 0 0 1 5 0 v 10 a 2.5 2.5 0 0 1 -5 0 Z " fill="white"/><path stroke="black" stroke-width="0.02" d="M 177.5 295 a 2.5 2.5 0 0 1 5 0 v 10 a 2.5 2.5 0 0 1 -5 0 Z " fill="white"/><path stroke="black" stroke-width="0.02" d="M 37.5 315 a 2.5 2.5 0 0 1 5 0 v 10 a 2.5 2.5 0 0 1 -5 0 Z " fill="white"/><path stroke="black" stroke-width="0.02" d="M 77.5 315 a 2.5 2.5 0 0 1 5 0 v 10 a 2.5 2.5 0 0 1 -5 0 Z " fill="white"/><path stroke="black" stroke-width="0.02" d="M 117.5 315 a 2.5 2.5 0 0 1 5 0 v 10 a 2.5 2.5 0 0 1 -5 0 Z " fill="white"/><path stroke="black" stroke-width="0.02" d="M 157.5 315 a 2.5 2.5 0 0 1 5 0 v 10 a 2.5 2.5 0 0 1 -5 0 Z " fill="white"/><path stroke="black" stroke-width="0.02" d="M 197.5 315 a 2.5 2.5 0 0 1 5 0 v 10 a 2.5 2.5 0 0 1 -5 0 Z " fill="white"/><path stroke="black" stroke-width="0.02" d="M 17.5 335 a 2.5 2.5 0 0 1 5 0 v 10 a 2.5 2.5 0 0 1 -5 0 Z " fill="white"/><path stroke="black" stroke-width="0.02" d="M 57.5 335 a 2.5 2.5 0 0 1 5 0 v 10 a 2.5 2.5 0 0 1 -5 0 Z " fill="white"/><path stroke="black" stroke-width="0.02" d="M 97.5 335 a 2.5 2.5 0 0 1 5 0 v 10 a 2.5 2.5 0 0 1 -5 0 Z " fill="white"/><path stroke="black" stroke-width="0.02" d="M 137.5 335 a 2.5 2.5 0 0 1 5 0 v 10 a 2.5 2.5 0 0 1 -5 0 Z " fill="white"/><path stroke="black" stroke-width="0.02" d="M 177.5 335 a 2.5 2.5 0 0 1 5 0 v 10 a 2.5 2.5 0 0 1 -5 0 Z " fill="white"/><path stroke="black" stroke-width="0.02" d="M 37.5 355 a 2.5 2.5 0 0 1 5 0 v 10 a 2.5 2.5 0 0 1 -5 0 Z " fill="white"/><path stroke="black" stroke-width="0.02" d="M 77.5 355 a 2.5 2.5 0 0 1 5 0 v 10 a 2.5 2.5 0 0 1 -5 0 Z " fill="white"/><path stroke="black" stroke-width="0.02" d="M 117.5 355 a 2.5 2.5 0 0 1 5 0 v 10 a 2.5 2.5 0 0 1 -5 0 Z " fill="white"/><path stroke="black" stroke-width="0.02" d="M 157.5 355 a 2.5 2.5 0 0 1 5 0 v 10 a 2.5 2.5 0 0 1 -5 0 Z " fill="white"/><path stroke="black" stroke-width="0.02" d="M 197.5 355 a 2.5 2.5 0 0 1 5 0 v 10 a 2.5 2.5 0 0 1 -5 0 Z " fill="white"/><path stroke="black" stroke-width="0.02" d="M 17.5 375 a 2.5 2.5 0 0 1 5 0 v 10 a 2.5 2.5 0 0 1 -5 0 Z " fill="white"/><path stroke="black" stroke-width="0.02" d="M 57.5 375 a 2.5 2.5 0 0 1 5 0 v 10 a 2.5 2.5 0 0 1 -5 0 Z " fill="white"/><path stroke="black" stroke-width="0.02" d="M 97.5 375 a 2.5 2.5 0 0 1 5 0 v 10 a 2.5 2.5 0 0 1 -5 0 Z " fill="white"/><path stroke="black" stroke-width="0.02" d="M 137.5 375 a 2.5 2.5 0 0 1 5 0 v 10 a 2.5 2.5 0 0 1 -5 0 Z " fill="white"/><path stroke="black" stroke-width="0.02" d="M 177.5 375 a 2.5 2.5 0 0 1 5 0 v 10 a 2.5 2.5 0 0 1 -5 0 Z " fill="white"/><path stroke="black" stroke-width="0.02" d="M 37.5 395 a 2.5 2.5 0 0 1 5 0 v 10 a 2.5 2.5 0 0 1 -5 0 Z " fill="white"/><path stroke="black" stroke-width="0.02" d="M 77.5 395 a 2.5 2.5 0 0 1 5 0 v 10 a 2.5 2.5 0 0 1 -5 0 Z " fill="white"/><path stroke="black" stroke-width="0.02" d="M 117.5 395 a 2.5 2.5 0 0 1 5 0 v 10 a 2.5 2.5 0 0 1 -5 0 Z " fill="white"/><path stroke="black" stroke-width="0.02" d="M 157.5 395 a 2.5 2.5 0 0 1 5 0 v 10 a 2.5 2.5 0 0 1 -5 0 Z " fill="white"/><path stroke="black" stroke-width="0.02" d="M 197.5 395 a 2.5 2.5 0 0 1 5 0 v 10 a 2.5 2.5 0 0 1 -5 0 Z " fill="white"/><path stroke="black" stroke-width="0.02" d="M 17.5 415 a 2.5 2.5 0 0 1 5 0 v 10 a 2.5 2.5 0 0 1 -5 0 Z " fill="white"/><path stroke="black" stroke-width="0.02" d="M 57.5 415 a 2.5 2.5 0 0 1 5 0 v 10 a 2.5 2.5 0 0 1 -5 0 Z " fill="white"/><path stroke="black" stroke-width="0.02" d="M 97.5 415 a 2.5 2.5 0 0 1 5 0 v 10 a 2.5 2.5 0 0 1 -5 0 Z " fill="white"/><path stroke="black" stroke-width="0.02" d="M 137.5 415 a 2.5 2.5 0 0 1 5 0 v 10 a 2.5 2.5 0 0 1 -5 0 Z " fill="white"/><path stroke="black" stroke-width="0.02" d="M 177.5 415 a 2.5 2.5 0 0 1 5 0 v 10 a 2.5 2.5 0 0 1 -5 0 Z " fill="white"/><path stroke="black" stroke-width="0.02" d="M 37.5 435 a 2.5 2.5 0 0 1 5 0 v 10 a 2.5 2.5 0 0 1 -5 0 Z " fill="white"/><path stroke="black" stroke-width="0.02" d="M 77.5 435 a 2.5 2.5 0 0 1 5 0 v 10 a 2.5 2.5 0 0 1 -5 0 Z " fill="white"/><path stroke="black" stroke-width="0.02" d="M 117.5 435 a 2.5 2.5 0 0 1 5 0 v 10 a 2.5 2.5 0 0 1 -5 0 Z " fill="white"/><path stroke="black" stroke-width="0.02" d="M 157.5 435 a 2.5 2.5 0 0 1 5 0 v 10 a 2.5 2.5 0 0 1 -5 0 Z " fill="white"/><path stroke="black" stroke-width="0.02" d="M 197.5 435 a 2.5 2.5 0 0 1 5 0 v 10 a 2.5 2.5 0 0 1 -5 0 Z " fill="white"/><path stroke="black" stroke-width="0.02" d="M 17.5 455 a 2.5 2.5 0 0 1 5 0 v 10 a 2.5 2.5 0 0 1 -5 0 Z " fill="white"/><path stroke="black" stroke-width="0.02" d="M 57.5 455 a 2.5 2.5 0 0 1 5 0 v 10 a 2.5 2.5 0 0 1 -5 0 Z " fill="white"/><path stroke="black" stroke-width="0.02" d="M 97.5 455 a 2.5 2.5 0 0 1 5 0 v 10 a 2.5 2.5 0 0 1 -5 0 Z " fill="white"/><path stroke="black" stroke-width="0.02" d="M 137.5 455 a 2.5 2.5 0 0 1 5 0 v 10 a 2.5 2.5 0 0 1 -5 0 Z " fill="white"/><path stroke="black" stroke-width="0.02" d="M 177.5 455 a 2.5 2.5 0 0 1 5 0 v 10 a 2.5 2.5 0 0 1 -5 0 Z " fill="white"/><path stroke="black" stroke-width="0.02" d="M 37.5 475 a 2.5 2.5 0 0 1 5 0 v 10 a 2.5 2.5 0 0 1 -5 0 Z " fill="white"/><path stroke="black" stroke-width="0.02" d="M 77.5 475 a 2.5 2.5 0 0 1 5 0 v 10 a 2.5 2.5 0 0 1 -5 0 Z " fill="white"/><path stroke="black" stroke-width="0.02" d="M 117.5 475 a 2.5 2.5 0 0 1 5 0 v 10 a 2.5 2.5 0 0 1 -5 0 Z " fill="white"/><path stroke="black" stroke-width="0.02" d="M 157.5 475 a 2.5 2.5 0 0 1 5 0 v 10 a 2.5 2.5 0 0 1 -5 0 Z " fill="white"/><path stroke="black" stroke-width="0.02" d="M 197.5 475 a 2.5 2.5 0 0 1 5 0 v 10 a 2.5 2.5 0 0 1 -5 0 Z " fill="white"/></svg>